STARTFONT 2.1
COMMENT
FONT Nedore_9
SIZE 9 78 78
FONTBOUNDINGBOX 9 9 0 -2
STARTPROPERTIES 5
DEFAULT_CHAR 32
POINT_SIZE 90
FONT_DESCENT 2
FONT_ASCENT 7
COPYRIGHT "Public domain font.  Share and enjoy."
ENDPROPERTIES
CHARS 224

STARTCHAR  
ENCODING 32
SWIDTH 270 0
DWIDTH 3 0
BBX 0 0 0 -2
BITMAP
ENDCHAR
STARTCHAR !
ENCODING 33
SWIDTH 270 0
DWIDTH 3 0
BBX 2 7 1 0
BITMAP
C0
C0
C0
C0
C0
00
C0
ENDCHAR
STARTCHAR "
ENCODING 34
SWIDTH 540 0
DWIDTH 6 0
BBX 5 3 1 4
BITMAP
D8
D8
D8
ENDCHAR
STARTCHAR #
ENCODING 35
SWIDTH 630 0
DWIDTH 7 0
BBX 7 6 0 0
BITMAP
6C
FE
6C
6C
FE
6C
ENDCHAR
STARTCHAR $
ENCODING 36
SWIDTH 630 0
DWIDTH 7 0
BBX 6 7 1 0
BITMAP
30
7C
C0
78
0C
F8
30
ENDCHAR
STARTCHAR %
ENCODING 37
SWIDTH 540 0
DWIDTH 6 0
BBX 5 6 1 0
BITMAP
C8
D8
30
60
D8
98
ENDCHAR
STARTCHAR &
ENCODING 38
SWIDTH 630 0
DWIDTH 7 0
BBX 7 7 0 0
BITMAP
38
6C
38
70
DE
CC
76
ENDCHAR
STARTCHAR '
ENCODING 39
SWIDTH 270 0
DWIDTH 3 0
BBX 2 3 1 4
BITMAP
C0
C0
C0
ENDCHAR
STARTCHAR (
ENCODING 40
SWIDTH 450 0
DWIDTH 5 0
BBX 4 7 1 0
BITMAP
70
E0
C0
C0
C0
E0
70
ENDCHAR
STARTCHAR )
ENCODING 41
SWIDTH 450 0
DWIDTH 5 0
BBX 4 7 1 0
BITMAP
E0
70
30
30
30
70
E0
ENDCHAR
STARTCHAR *
ENCODING 42
SWIDTH 720 0
DWIDTH 8 0
BBX 7 5 1 1
BITMAP
6C
38
FE
38
6C
ENDCHAR
STARTCHAR +
ENCODING 43
SWIDTH 630 0
DWIDTH 7 0
BBX 6 5 1 1
BITMAP
30
30
FC
30
30
ENDCHAR
STARTCHAR ,
ENCODING 44
SWIDTH 360 0
DWIDTH 4 0
BBX 3 3 1 -1
BITMAP
60
60
C0
ENDCHAR
STARTCHAR -
ENCODING 45
SWIDTH 540 0
DWIDTH 6 0
BBX 5 1 1 3
BITMAP
F8
ENDCHAR
STARTCHAR .
ENCODING 46
SWIDTH 270 0
DWIDTH 3 0
BBX 2 2 1 0
BITMAP
C0
C0
ENDCHAR
STARTCHAR /
ENCODING 47
SWIDTH 540 0
DWIDTH 6 0
BBX 5 8 1 -1
BITMAP
18
18
30
30
60
60
C0
C0
ENDCHAR
STARTCHAR 0
ENCODING 48
SWIDTH 630 0
DWIDTH 7 0
BBX 6 7 1 0
BITMAP
78
CC
DC
EC
CC
CC
78
ENDCHAR
STARTCHAR 1
ENCODING 49
SWIDTH 630 0
DWIDTH 7 0
BBX 4 7 2 0
BITMAP
60
E0
60
60
60
60
F0
ENDCHAR
STARTCHAR 2
ENCODING 50
SWIDTH 630 0
DWIDTH 7 0
BBX 6 7 1 0
BITMAP
78
CC
0C
18
30
60
FC
ENDCHAR
STARTCHAR 3
ENCODING 51
SWIDTH 630 0
DWIDTH 7 0
BBX 6 7 1 0
BITMAP
FC
18
30
18
0C
CC
78
ENDCHAR
STARTCHAR 4
ENCODING 52
SWIDTH 630 0
DWIDTH 7 0
BBX 6 7 1 0
BITMAP
18
38
78
D8
FC
18
18
ENDCHAR
STARTCHAR 5
ENCODING 53
SWIDTH 630 0
DWIDTH 7 0
BBX 6 7 1 0
BITMAP
FC
C0
F8
0C
0C
CC
78
ENDCHAR
STARTCHAR 6
ENCODING 54
SWIDTH 630 0
DWIDTH 7 0
BBX 6 7 1 0
BITMAP
78
C0
C0
F8
CC
CC
78
ENDCHAR
STARTCHAR 7
ENCODING 55
SWIDTH 630 0
DWIDTH 7 0
BBX 6 7 1 0
BITMAP
FC
0C
18
30
30
30
30
ENDCHAR
STARTCHAR 8
ENCODING 56
SWIDTH 630 0
DWIDTH 7 0
BBX 6 7 1 0
BITMAP
78
CC
CC
78
CC
CC
78
ENDCHAR
STARTCHAR 9
ENCODING 57
SWIDTH 630 0
DWIDTH 7 0
BBX 6 7 1 0
BITMAP
78
CC
CC
7C
0C
18
70
ENDCHAR
STARTCHAR :
ENCODING 58
SWIDTH 270 0
DWIDTH 3 0
BBX 2 5 1 1
BITMAP
C0
C0
00
C0
C0
ENDCHAR
STARTCHAR ;
ENCODING 59
SWIDTH 360 0
DWIDTH 4 0
BBX 3 6 1 0
BITMAP
60
60
00
60
60
C0
ENDCHAR
STARTCHAR <
ENCODING 60
SWIDTH 540 0
DWIDTH 6 0
BBX 5 7 1 0
BITMAP
18
30
60
C0
60
30
18
ENDCHAR
STARTCHAR =
ENCODING 61
SWIDTH 450 0
DWIDTH 5 0
BBX 4 3 1 2
BITMAP
F0
00
F0
ENDCHAR
STARTCHAR >
ENCODING 62
SWIDTH 540 0
DWIDTH 6 0
BBX 5 7 1 0
BITMAP
C0
60
30
18
30
60
C0
ENDCHAR
STARTCHAR ?
ENCODING 63
SWIDTH 630 0
DWIDTH 7 0
BBX 6 7 1 0
BITMAP
78
CC
0C
18
30
00
30
ENDCHAR
STARTCHAR @
ENCODING 64
SWIDTH 630 0
DWIDTH 7 0
BBX 6 7 1 0
BITMAP
78
CC
DC
D4
DC
C0
7C
ENDCHAR
STARTCHAR A
ENCODING 65
SWIDTH 630 0
DWIDTH 7 0
BBX 6 7 1 0
BITMAP
30
78
CC
CC
FC
CC
CC
ENDCHAR
STARTCHAR B
ENCODING 66
SWIDTH 630 0
DWIDTH 7 0
BBX 6 7 1 0
BITMAP
F8
CC
CC
F8
CC
CC
F8
ENDCHAR
STARTCHAR C
ENCODING 67
SWIDTH 630 0
DWIDTH 7 0
BBX 6 7 1 0
BITMAP
78
CC
C0
C0
C0
CC
78
ENDCHAR
STARTCHAR D
ENCODING 68
SWIDTH 630 0
DWIDTH 7 0
BBX 6 7 1 0
BITMAP
F0
D8
CC
CC
CC
D8
F0
ENDCHAR
STARTCHAR E
ENCODING 69
SWIDTH 540 0
DWIDTH 6 0
BBX 5 7 1 0
BITMAP
F8
C0
C0
F8
C0
C0
F8
ENDCHAR
STARTCHAR F
ENCODING 70
SWIDTH 540 0
DWIDTH 6 0
BBX 5 7 1 0
BITMAP
F8
C0
C0
F8
C0
C0
C0
ENDCHAR
STARTCHAR G
ENCODING 71
SWIDTH 630 0
DWIDTH 7 0
BBX 6 7 1 0
BITMAP
7C
C0
C0
DC
CC
CC
7C
ENDCHAR
STARTCHAR H
ENCODING 72
SWIDTH 630 0
DWIDTH 7 0
BBX 6 7 1 0
BITMAP
CC
CC
CC
FC
CC
CC
CC
ENDCHAR
STARTCHAR I
ENCODING 73
SWIDTH 270 0
DWIDTH 3 0
BBX 2 7 1 0
BITMAP
C0
C0
C0
C0
C0
C0
C0
ENDCHAR
STARTCHAR J
ENCODING 74
SWIDTH 450 0
DWIDTH 5 0
BBX 5 7 0 0
BITMAP
18
18
18
18
18
D8
70
ENDCHAR
STARTCHAR K
ENCODING 75
SWIDTH 630 0
DWIDTH 7 0
BBX 6 7 1 0
BITMAP
CC
D8
F0
E0
F0
D8
CC
ENDCHAR
STARTCHAR L
ENCODING 76
SWIDTH 540 0
DWIDTH 6 0
BBX 5 7 1 0
BITMAP
C0
C0
C0
C0
C0
C0
F8
ENDCHAR
STARTCHAR M
ENCODING 77
SWIDTH 720 0
DWIDTH 8 0
BBX 7 7 1 0
BITMAP
C6
EE
FE
D6
C6
C6
C6
ENDCHAR
STARTCHAR N
ENCODING 78
SWIDTH 630 0
DWIDTH 7 0
BBX 6 7 1 0
BITMAP
CC
EC
FC
FC
DC
CC
CC
ENDCHAR
STARTCHAR O
ENCODING 79
SWIDTH 630 0
DWIDTH 7 0
BBX 6 7 1 0
BITMAP
78
CC
CC
CC
CC
CC
78
ENDCHAR
STARTCHAR P
ENCODING 80
SWIDTH 630 0
DWIDTH 7 0
BBX 6 7 1 0
BITMAP
F8
CC
CC
F8
C0
C0
C0
ENDCHAR
STARTCHAR Q
ENCODING 81
SWIDTH 630 0
DWIDTH 7 0
BBX 6 8 1 -1
BITMAP
78
CC
CC
CC
CC
CC
70
18
ENDCHAR
STARTCHAR R
ENCODING 82
SWIDTH 630 0
DWIDTH 7 0
BBX 6 7 1 0
BITMAP
F8
CC
CC
F8
D8
CC
CC
ENDCHAR
STARTCHAR S
ENCODING 83
SWIDTH 630 0
DWIDTH 7 0
BBX 6 7 1 0
BITMAP
78
CC
C0
78
0C
CC
78
ENDCHAR
STARTCHAR T
ENCODING 84
SWIDTH 540 0
DWIDTH 6 0
BBX 6 7 0 0
BITMAP
FC
30
30
30
30
30
30
ENDCHAR
STARTCHAR U
ENCODING 85
SWIDTH 630 0
DWIDTH 7 0
BBX 6 7 1 0
BITMAP
CC
CC
CC
CC
CC
CC
78
ENDCHAR
STARTCHAR V
ENCODING 86
SWIDTH 630 0
DWIDTH 7 0
BBX 6 7 1 0
BITMAP
CC
CC
CC
78
78
30
30
ENDCHAR
STARTCHAR W
ENCODING 87
SWIDTH 720 0
DWIDTH 8 0
BBX 7 7 1 0
BITMAP
C6
C6
C6
D6
FE
EE
C6
ENDCHAR
STARTCHAR X
ENCODING 88
SWIDTH 630 0
DWIDTH 7 0
BBX 6 7 1 0
BITMAP
CC
CC
78
30
78
CC
CC
ENDCHAR
STARTCHAR Y
ENCODING 89
SWIDTH 630 0
DWIDTH 7 0
BBX 6 7 1 0
BITMAP
CC
CC
CC
78
30
30
30
ENDCHAR
STARTCHAR Z
ENCODING 90
SWIDTH 630 0
DWIDTH 7 0
BBX 6 7 1 0
BITMAP
FC
0C
18
30
60
C0
FC
ENDCHAR
STARTCHAR [
ENCODING 91
SWIDTH 450 0
DWIDTH 5 0
BBX 4 7 1 0
BITMAP
F0
C0
C0
C0
C0
C0
F0
ENDCHAR
STARTCHAR \
ENCODING 92
SWIDTH 540 0
DWIDTH 6 0
BBX 5 8 1 -1
BITMAP
C0
C0
60
60
30
30
18
18
ENDCHAR
STARTCHAR ]
ENCODING 93
SWIDTH 450 0
DWIDTH 5 0
BBX 4 7 1 0
BITMAP
F0
30
30
30
30
30
F0
ENDCHAR
STARTCHAR ^
ENCODING 94
SWIDTH 540 0
DWIDTH 6 0
BBX 5 3 1 4
BITMAP
20
70
D8
ENDCHAR
STARTCHAR _
ENCODING 95
SWIDTH 360 0
DWIDTH 4 0
BBX 3 1 1 0
BITMAP
E0
ENDCHAR
STARTCHAR `
ENCODING 96
SWIDTH 450 0
DWIDTH 5 0
BBX 4 3 1 3
BITMAP
C0
60
30
ENDCHAR
STARTCHAR a
ENCODING 97
SWIDTH 540 0
DWIDTH 6 0
BBX 5 5 1 0
BITMAP
F0
18
F8
98
F8
ENDCHAR
STARTCHAR b
ENCODING 98
SWIDTH 630 0
DWIDTH 7 0
BBX 6 7 1 0
BITMAP
C0
C0
F8
CC
CC
CC
F8
ENDCHAR
STARTCHAR c
ENCODING 99
SWIDTH 450 0
DWIDTH 5 0
BBX 4 5 1 0
BITMAP
70
C0
C0
C0
70
ENDCHAR
STARTCHAR d
ENCODING 100
SWIDTH 630 0
DWIDTH 7 0
BBX 6 7 1 0
BITMAP
0C
0C
7C
CC
CC
CC
7C
ENDCHAR
STARTCHAR e
ENCODING 101
SWIDTH 630 0
DWIDTH 7 0
BBX 6 5 1 0
BITMAP
78
CC
FC
C0
78
ENDCHAR
STARTCHAR f
ENCODING 102
SWIDTH 360 0
DWIDTH 4 0
BBX 3 7 1 0
BITMAP
60
C0
E0
C0
C0
C0
C0
ENDCHAR
STARTCHAR g
ENCODING 103
SWIDTH 630 0
DWIDTH 7 0
BBX 6 6 1 -1
BITMAP
7C
CC
CC
7C
0C
78
ENDCHAR
STARTCHAR h
ENCODING 104
SWIDTH 630 0
DWIDTH 7 0
BBX 6 7 1 0
BITMAP
C0
C0
F8
CC
CC
CC
CC
ENDCHAR
STARTCHAR i
ENCODING 105
SWIDTH 270 0
DWIDTH 3 0
BBX 2 7 1 0
BITMAP
C0
00
C0
C0
C0
C0
C0
ENDCHAR
STARTCHAR j
ENCODING 106
SWIDTH 270 0
DWIDTH 3 0
BBX 3 8 0 -1
BITMAP
60
00
60
60
60
60
60
C0
ENDCHAR
STARTCHAR k
ENCODING 107
SWIDTH 540 0
DWIDTH 6 0
BBX 5 7 1 0
BITMAP
C0
C0
C8
D8
F0
D8
C8
ENDCHAR
STARTCHAR l
ENCODING 108
SWIDTH 270 0
DWIDTH 3 0
BBX 2 7 1 0
BITMAP
C0
C0
C0
C0
C0
C0
C0
ENDCHAR
STARTCHAR m
ENCODING 109
SWIDTH 720 0
DWIDTH 8 0
BBX 7 5 1 0
BITMAP
EC
FE
D6
D6
C6
ENDCHAR
STARTCHAR n
ENCODING 110
SWIDTH 630 0
DWIDTH 7 0
BBX 6 5 1 0
BITMAP
F8
CC
CC
CC
CC
ENDCHAR
STARTCHAR o
ENCODING 111
SWIDTH 630 0
DWIDTH 7 0
BBX 6 5 1 0
BITMAP
78
CC
CC
CC
78
ENDCHAR
STARTCHAR p
ENCODING 112
SWIDTH 630 0
DWIDTH 7 0
BBX 6 6 1 -1
BITMAP
F8
CC
CC
CC
F8
C0
ENDCHAR
STARTCHAR q
ENCODING 113
SWIDTH 630 0
DWIDTH 7 0
BBX 6 6 1 -1
BITMAP
7C
CC
CC
CC
7C
0C
ENDCHAR
STARTCHAR r
ENCODING 114
SWIDTH 450 0
DWIDTH 5 0
BBX 4 5 1 0
BITMAP
D0
E0
C0
C0
C0
ENDCHAR
STARTCHAR s
ENCODING 115
SWIDTH 450 0
DWIDTH 5 0
BBX 4 5 1 0
BITMAP
F0
C0
F0
30
F0
ENDCHAR
STARTCHAR t
ENCODING 116
SWIDTH 360 0
DWIDTH 4 0
BBX 3 6 1 0
BITMAP
C0
E0
C0
C0
C0
60
ENDCHAR
STARTCHAR u
ENCODING 117
SWIDTH 630 0
DWIDTH 7 0
BBX 6 5 1 0
BITMAP
CC
CC
CC
CC
78
ENDCHAR
STARTCHAR v
ENCODING 118
SWIDTH 630 0
DWIDTH 7 0
BBX 6 5 1 0
BITMAP
CC
CC
CC
78
30
ENDCHAR
STARTCHAR w
ENCODING 119
SWIDTH 720 0
DWIDTH 8 0
BBX 7 5 1 0
BITMAP
C6
C6
D6
7C
6C
ENDCHAR
STARTCHAR x
ENCODING 120
SWIDTH 630 0
DWIDTH 7 0
BBX 6 5 1 0
BITMAP
CC
78
30
78
CC
ENDCHAR
STARTCHAR y
ENCODING 121
SWIDTH 630 0
DWIDTH 7 0
BBX 6 6 1 -1
BITMAP
CC
CC
CC
7C
0C
F8
ENDCHAR
STARTCHAR z
ENCODING 122
SWIDTH 630 0
DWIDTH 7 0
BBX 6 5 1 0
BITMAP
FC
18
30
60
FC
ENDCHAR
STARTCHAR {
ENCODING 123
SWIDTH 540 0
DWIDTH 6 0
BBX 5 7 1 0
BITMAP
38
60
60
C0
60
60
38
ENDCHAR
STARTCHAR |
ENCODING 124
SWIDTH 270 0
DWIDTH 3 0
BBX 2 8 1 -1
BITMAP
C0
C0
C0
C0
C0
C0
C0
C0
ENDCHAR
STARTCHAR }
ENCODING 125
SWIDTH 540 0
DWIDTH 6 0
BBX 5 7 1 0
BITMAP
E0
30
30
18
30
30
E0
ENDCHAR
STARTCHAR ~
ENCODING 126
SWIDTH 720 0
DWIDTH 8 0
BBX 7 4 1 2
BITMAP
60
F2
9E
0C
ENDCHAR
STARTCHAR 
ENCODING 127
SWIDTH 270 0
DWIDTH 3 0
BBX 0 0 0 -2
BITMAP
ENDCHAR
STARTCHAR Ä
ENCODING 128
SWIDTH 270 0
DWIDTH 3 0
BBX 0 0 0 -2
BITMAP
ENDCHAR
STARTCHAR Å
ENCODING 129
SWIDTH 270 0
DWIDTH 3 0
BBX 0 0 0 -2
BITMAP
ENDCHAR
STARTCHAR Ç
ENCODING 130
SWIDTH 270 0
DWIDTH 3 0
BBX 0 0 0 -2
BITMAP
ENDCHAR
STARTCHAR É
ENCODING 131
SWIDTH 270 0
DWIDTH 3 0
BBX 0 0 0 -2
BITMAP
ENDCHAR
STARTCHAR Ñ
ENCODING 132
SWIDTH 270 0
DWIDTH 3 0
BBX 0 0 0 -2
BITMAP
ENDCHAR
STARTCHAR Ö
ENCODING 133
SWIDTH 270 0
DWIDTH 3 0
BBX 0 0 0 -2
BITMAP
ENDCHAR
STARTCHAR Ü
ENCODING 134
SWIDTH 270 0
DWIDTH 3 0
BBX 0 0 0 -2
BITMAP
ENDCHAR
STARTCHAR á
ENCODING 135
SWIDTH 270 0
DWIDTH 3 0
BBX 0 0 0 -2
BITMAP
ENDCHAR
STARTCHAR à
ENCODING 136
SWIDTH 270 0
DWIDTH 3 0
BBX 0 0 0 -2
BITMAP
ENDCHAR
STARTCHAR â
ENCODING 137
SWIDTH 270 0
DWIDTH 3 0
BBX 0 0 0 -2
BITMAP
ENDCHAR
STARTCHAR ä
ENCODING 138
SWIDTH 270 0
DWIDTH 3 0
BBX 0 0 0 -2
BITMAP
ENDCHAR
STARTCHAR ã
ENCODING 139
SWIDTH 270 0
DWIDTH 3 0
BBX 0 0 0 -2
BITMAP
ENDCHAR
STARTCHAR å
ENCODING 140
SWIDTH 270 0
DWIDTH 3 0
BBX 0 0 0 -2
BITMAP
ENDCHAR
STARTCHAR ç
ENCODING 141
SWIDTH 270 0
DWIDTH 3 0
BBX 0 0 0 -2
BITMAP
ENDCHAR
STARTCHAR é
ENCODING 142
SWIDTH 270 0
DWIDTH 3 0
BBX 0 0 0 -2
BITMAP
ENDCHAR
STARTCHAR è
ENCODING 143
SWIDTH 270 0
DWIDTH 3 0
BBX 0 0 0 -2
BITMAP
ENDCHAR
STARTCHAR ê
ENCODING 144
SWIDTH 270 0
DWIDTH 3 0
BBX 0 0 0 -2
BITMAP
ENDCHAR
STARTCHAR ë
ENCODING 145
SWIDTH 270 0
DWIDTH 3 0
BBX 0 0 0 -2
BITMAP
ENDCHAR
STARTCHAR í
ENCODING 146
SWIDTH 270 0
DWIDTH 3 0
BBX 0 0 0 -2
BITMAP
ENDCHAR
STARTCHAR ì
ENCODING 147
SWIDTH 270 0
DWIDTH 3 0
BBX 0 0 0 -2
BITMAP
ENDCHAR
STARTCHAR î
ENCODING 148
SWIDTH 270 0
DWIDTH 3 0
BBX 0 0 0 -2
BITMAP
ENDCHAR
STARTCHAR ï
ENCODING 149
SWIDTH 270 0
DWIDTH 3 0
BBX 0 0 0 -2
BITMAP
ENDCHAR
STARTCHAR ñ
ENCODING 150
SWIDTH 270 0
DWIDTH 3 0
BBX 0 0 0 -2
BITMAP
ENDCHAR
STARTCHAR ó
ENCODING 151
SWIDTH 270 0
DWIDTH 3 0
BBX 0 0 0 -2
BITMAP
ENDCHAR
STARTCHAR ò
ENCODING 152
SWIDTH 270 0
DWIDTH 3 0
BBX 0 0 0 -2
BITMAP
ENDCHAR
STARTCHAR ô
ENCODING 153
SWIDTH 270 0
DWIDTH 3 0
BBX 0 0 0 -2
BITMAP
ENDCHAR
STARTCHAR ö
ENCODING 154
SWIDTH 270 0
DWIDTH 3 0
BBX 0 0 0 -2
BITMAP
ENDCHAR
STARTCHAR õ
ENCODING 155
SWIDTH 270 0
DWIDTH 3 0
BBX 0 0 0 -2
BITMAP
ENDCHAR
STARTCHAR ú
ENCODING 156
SWIDTH 270 0
DWIDTH 3 0
BBX 0 0 0 -2
BITMAP
ENDCHAR
STARTCHAR ù
ENCODING 157
SWIDTH 270 0
DWIDTH 3 0
BBX 0 0 0 -2
BITMAP
ENDCHAR
STARTCHAR û
ENCODING 158
SWIDTH 270 0
DWIDTH 3 0
BBX 0 0 0 -2
BITMAP
ENDCHAR
STARTCHAR ü
ENCODING 159
SWIDTH 270 0
DWIDTH 3 0
BBX 0 0 0 -2
BITMAP
ENDCHAR
STARTCHAR †
ENCODING 160
SWIDTH 720 0
DWIDTH 8 0
BBX 0 0 0 -2
BITMAP
ENDCHAR
STARTCHAR °
ENCODING 161
SWIDTH 270 0
DWIDTH 3 0
BBX 2 7 1 -1
BITMAP
C0
00
C0
C0
C0
C0
C0
ENDCHAR
STARTCHAR ¢
ENCODING 162
SWIDTH 540 0
DWIDTH 6 0
BBX 5 8 1 -1
BITMAP
30
30
78
C0
C0
78
30
30
ENDCHAR
STARTCHAR £
ENCODING 163
SWIDTH 630 0
DWIDTH 7 0
BBX 6 7 1 0
BITMAP
38
74
60
F8
60
60
FC
ENDCHAR
STARTCHAR §
ENCODING 164
SWIDTH 630 0
DWIDTH 7 0
BBX 6 7 1 0
BITMAP
3C
60
F8
60
F8
60
3C
ENDCHAR
STARTCHAR •
ENCODING 165
SWIDTH 630 0
DWIDTH 7 0
BBX 6 7 1 0
BITMAP
CC
CC
78
30
78
30
30
ENDCHAR
STARTCHAR ¶
ENCODING 166
SWIDTH 180 0
DWIDTH 2 0
BBX 1 7 1 0
BITMAP
80
80
80
00
80
80
80
ENDCHAR
STARTCHAR ß
ENCODING 167
SWIDTH 720 0
DWIDTH 8 0
BBX 8 8 0 -1
BITMAP
0E
1B
3C
66
66
3C
D8
70
ENDCHAR
STARTCHAR ®
ENCODING 168
SWIDTH 720 0
DWIDTH 8 0
BBX 6 1 1 6
BITMAP
CC
ENDCHAR
STARTCHAR ©
ENCODING 169
SWIDTH 720 0
DWIDTH 8 0
BBX 8 8 0 -1
BITMAP
7E
C3
BD
B1
B1
BD
C3
7E
ENDCHAR
STARTCHAR ™
ENCODING 170
SWIDTH 630 0
DWIDTH 7 0
BBX 6 7 1 -1
BITMAP
78
0C
7C
CC
7C
00
78
ENDCHAR
STARTCHAR ´
ENCODING 171
SWIDTH 720 0
DWIDTH 8 0
BBX 8 7 0 0
BITMAP
1B
36
6C
D8
6C
36
1B
ENDCHAR
STARTCHAR ¨
ENCODING 172
SWIDTH 450 0
DWIDTH 5 0
BBX 4 4 1 0
BITMAP
F0
30
30
30
ENDCHAR
STARTCHAR ≠
ENCODING 173
SWIDTH 720 0
DWIDTH 8 0
BBX 0 0 0 -2
BITMAP
ENDCHAR
STARTCHAR Æ
ENCODING 174
SWIDTH 720 0
DWIDTH 8 0
BBX 8 8 0 -1
BITMAP
7E
C3
BD
A5
B9
AD
C3
7E
ENDCHAR
STARTCHAR Ø
ENCODING 175
SWIDTH 540 0
DWIDTH 6 0
BBX 4 1 2 6
BITMAP
F0
ENDCHAR
STARTCHAR ∞
ENCODING 176
SWIDTH 540 0
DWIDTH 6 0
BBX 5 3 1 4
BITMAP
70
D8
70
ENDCHAR
STARTCHAR ±
ENCODING 177
SWIDTH 630 0
DWIDTH 7 0
BBX 6 7 1 0
BITMAP
30
30
FC
30
30
00
FC
ENDCHAR
STARTCHAR ≤
ENCODING 178
SWIDTH 540 0
DWIDTH 6 0
BBX 5 5 1 2
BITMAP
70
D8
30
60
F8
ENDCHAR
STARTCHAR ≥
ENCODING 179
SWIDTH 540 0
DWIDTH 6 0
BBX 5 5 1 2
BITMAP
F0
18
70
18
F0
ENDCHAR
STARTCHAR ¥
ENCODING 180
SWIDTH 540 0
DWIDTH 6 0
BBX 4 3 2 4
BITMAP
30
60
C0
ENDCHAR
STARTCHAR µ
ENCODING 181
SWIDTH 720 0
DWIDTH 8 0
BBX 8 6 0 -1
BITMAP
6C
6C
6C
6C
7F
C0
ENDCHAR
STARTCHAR ∂
ENCODING 182
SWIDTH 630 0
DWIDTH 7 0
BBX 6 8 1 -1
BITMAP
7C
D4
D4
D4
74
14
14
14
ENDCHAR
STARTCHAR ∑
ENCODING 183
SWIDTH 450 0
DWIDTH 5 0
BBX 2 2 3 2
BITMAP
C0
C0
ENDCHAR
STARTCHAR ∏
ENCODING 184
SWIDTH 450 0
DWIDTH 5 0
BBX 3 3 2 -1
BITMAP
20
20
E0
ENDCHAR
STARTCHAR π
ENCODING 185
SWIDTH 540 0
DWIDTH 6 0
BBX 4 5 1 2
BITMAP
60
E0
60
60
F0
ENDCHAR
STARTCHAR ∫
ENCODING 186
SWIDTH 630 0
DWIDTH 7 0
BBX 6 7 1 -1
BITMAP
78
CC
CC
CC
78
00
78
ENDCHAR
STARTCHAR ª
ENCODING 187
SWIDTH 720 0
DWIDTH 8 0
BBX 8 7 0 0
BITMAP
D8
6C
36
1B
36
6C
D8
ENDCHAR
STARTCHAR º
ENCODING 188
SWIDTH 720 0
DWIDTH 8 0
BBX 8 8 0 -1
BITMAP
C6
CC
D8
36
6E
D6
9F
06
ENDCHAR
STARTCHAR Ω
ENCODING 189
SWIDTH 720 0
DWIDTH 8 0
BBX 8 8 0 -1
BITMAP
C6
CC
D8
36
6B
C3
86
0F
ENDCHAR
STARTCHAR æ
ENCODING 190
SWIDTH 720 0
DWIDTH 8 0
BBX 8 8 0 -1
BITMAP
E6
6C
78
F6
6E
D6
9F
06
ENDCHAR
STARTCHAR ø
ENCODING 191
SWIDTH 630 0
DWIDTH 7 0
BBX 6 7 1 -1
BITMAP
30
00
30
60
C0
CC
78
ENDCHAR
STARTCHAR ¿
ENCODING 192
SWIDTH 630 0
DWIDTH 7 0
BBX 6 8 1 -1
BITMAP
60
30
00
30
78
CC
FC
CC
ENDCHAR
STARTCHAR ¡
ENCODING 193
SWIDTH 630 0
DWIDTH 7 0
BBX 6 8 1 -1
BITMAP
18
30
00
30
78
CC
FC
CC
ENDCHAR
STARTCHAR ¬
ENCODING 194
SWIDTH 630 0
DWIDTH 7 0
BBX 6 8 1 -1
BITMAP
30
78
00
30
78
CC
FC
CC
ENDCHAR
STARTCHAR √
ENCODING 195
SWIDTH 630 0
DWIDTH 7 0
BBX 6 8 1 -1
BITMAP
68
B0
00
30
78
CC
FC
CC
ENDCHAR
STARTCHAR ƒ
ENCODING 196
SWIDTH 630 0
DWIDTH 7 0
BBX 6 7 1 0
BITMAP
CC
00
30
78
CC
FC
CC
ENDCHAR
STARTCHAR ≈
ENCODING 197
SWIDTH 630 0
DWIDTH 7 0
BBX 6 7 1 0
BITMAP
30
48
30
78
CC
FC
CC
ENDCHAR
STARTCHAR ∆
ENCODING 198
SWIDTH 720 0
DWIDTH 8 0
BBX 8 7 0 0
BITMAP
3F
78
D8
DE
F8
D8
DF
ENDCHAR
STARTCHAR «
ENCODING 199
SWIDTH 630 0
DWIDTH 7 0
BBX 6 7 1 -1
BITMAP
78
CC
C0
CC
78
10
70
ENDCHAR
STARTCHAR »
ENCODING 200
SWIDTH 630 0
DWIDTH 7 0
BBX 6 7 1 0
BITMAP
60
30
FC
C0
F8
C0
FC
ENDCHAR
STARTCHAR …
ENCODING 201
SWIDTH 630 0
DWIDTH 7 0
BBX 6 7 1 0
BITMAP
18
30
FC
C0
F8
C0
FC
ENDCHAR
STARTCHAR  
ENCODING 202
SWIDTH 630 0
DWIDTH 7 0
BBX 6 7 1 0
BITMAP
30
78
FC
C0
F8
C0
FC
ENDCHAR
STARTCHAR À
ENCODING 203
SWIDTH 630 0
DWIDTH 7 0
BBX 6 7 1 0
BITMAP
CC
00
FC
C0
F8
C0
FC
ENDCHAR
STARTCHAR Ã
ENCODING 204
SWIDTH 540 0
DWIDTH 6 0
BBX 4 7 2 0
BITMAP
C0
60
F0
60
60
60
F0
ENDCHAR
STARTCHAR Õ
ENCODING 205
SWIDTH 540 0
DWIDTH 6 0
BBX 4 7 2 0
BITMAP
30
60
F0
60
60
60
F0
ENDCHAR
STARTCHAR Œ
ENCODING 206
SWIDTH 540 0
DWIDTH 6 0
BBX 4 7 2 0
BITMAP
60
F0
00
F0
60
60
F0
ENDCHAR
STARTCHAR œ
ENCODING 207
SWIDTH 630 0
DWIDTH 7 0
BBX 6 7 1 0
BITMAP
CC
00
78
30
30
30
78
ENDCHAR
STARTCHAR –
ENCODING 208
SWIDTH 630 0
DWIDTH 7 0
BBX 7 7 0 0
BITMAP
7C
66
66
F6
66
66
7C
ENDCHAR
STARTCHAR —
ENCODING 209
SWIDTH 630 0
DWIDTH 7 0
BBX 6 7 1 0
BITMAP
68
B0
00
CC
EC
DC
CC
ENDCHAR
STARTCHAR “
ENCODING 210
SWIDTH 540 0
DWIDTH 6 0
BBX 5 8 1 -1
BITMAP
60
30
78
C8
C8
C8
C8
78
ENDCHAR
STARTCHAR ”
ENCODING 211
SWIDTH 630 0
DWIDTH 7 0
BBX 6 8 1 -1
BITMAP
18
30
78
CC
CC
CC
CC
78
ENDCHAR
STARTCHAR ‘
ENCODING 212
SWIDTH 630 0
DWIDTH 7 0
BBX 6 8 1 -1
BITMAP
30
78
00
78
CC
CC
CC
78
ENDCHAR
STARTCHAR ’
ENCODING 213
SWIDTH 630 0
DWIDTH 7 0
BBX 6 8 1 -1
BITMAP
68
B0
78
CC
CC
CC
CC
78
ENDCHAR
STARTCHAR ÷
ENCODING 214
SWIDTH 630 0
DWIDTH 7 0
BBX 6 7 1 0
BITMAP
CC
00
78
CC
CC
CC
78
ENDCHAR
STARTCHAR ◊
ENCODING 215
SWIDTH 540 0
DWIDTH 6 0
BBX 5 4 1 1
BITMAP
D8
70
70
D8
ENDCHAR
STARTCHAR ÿ
ENCODING 216
SWIDTH 630 0
DWIDTH 7 0
BBX 6 8 1 -1
BITMAP
04
78
CC
DC
EC
CC
78
80
ENDCHAR
STARTCHAR Ÿ
ENCODING 217
SWIDTH 630 0
DWIDTH 7 0
BBX 6 7 1 0
BITMAP
60
30
CC
CC
CC
CC
78
ENDCHAR
STARTCHAR ⁄
ENCODING 218
SWIDTH 630 0
DWIDTH 7 0
BBX 6 7 1 0
BITMAP
18
30
CC
CC
CC
CC
78
ENDCHAR
STARTCHAR €
ENCODING 219
SWIDTH 630 0
DWIDTH 7 0
BBX 6 8 1 -1
BITMAP
30
78
00
CC
CC
CC
CC
78
ENDCHAR
STARTCHAR ‹
ENCODING 220
SWIDTH 630 0
DWIDTH 7 0
BBX 6 7 1 0
BITMAP
CC
00
CC
CC
CC
CC
78
ENDCHAR
STARTCHAR ›
ENCODING 221
SWIDTH 630 0
DWIDTH 7 0
BBX 6 7 1 0
BITMAP
18
30
CC
CC
78
30
30
ENDCHAR
STARTCHAR ﬁ
ENCODING 222
SWIDTH 630 0
DWIDTH 7 0
BBX 6 7 1 0
BITMAP
C0
C0
F8
CC
CC
F8
C0
ENDCHAR
STARTCHAR ﬂ
ENCODING 223
SWIDTH 630 0
DWIDTH 7 0
BBX 6 8 1 -1
BITMAP
78
CC
CC
D8
CC
CC
D8
C0
ENDCHAR
STARTCHAR ‡
ENCODING 224
SWIDTH 630 0
DWIDTH 7 0
BBX 6 7 1 0
BITMAP
60
30
00
78
0C
FC
7C
ENDCHAR
STARTCHAR ·
ENCODING 225
SWIDTH 630 0
DWIDTH 7 0
BBX 6 7 1 0
BITMAP
18
30
00
78
0C
FC
7C
ENDCHAR
STARTCHAR ‚
ENCODING 226
SWIDTH 630 0
DWIDTH 7 0
BBX 6 7 1 0
BITMAP
30
CC
00
78
0C
FC
7C
ENDCHAR
STARTCHAR „
ENCODING 227
SWIDTH 630 0
DWIDTH 7 0
BBX 6 7 1 0
BITMAP
68
B0
00
78
0C
FC
7C
ENDCHAR
STARTCHAR ‰
ENCODING 228
SWIDTH 630 0
DWIDTH 7 0
BBX 6 7 1 0
BITMAP
CC
00
78
0C
7C
CC
7C
ENDCHAR
STARTCHAR Â
ENCODING 229
SWIDTH 630 0
DWIDTH 7 0
BBX 6 7 1 0
BITMAP
30
48
30
78
0C
FC
7C
ENDCHAR
STARTCHAR Ê
ENCODING 230
SWIDTH 720 0
DWIDTH 8 0
BBX 8 5 0 0
BITMAP
7E
1B
7F
D8
7E
ENDCHAR
STARTCHAR Á
ENCODING 231
SWIDTH 540 0
DWIDTH 6 0
BBX 5 6 1 -1
BITMAP
78
C0
C0
78
10
30
ENDCHAR
STARTCHAR Ë
ENCODING 232
SWIDTH 630 0
DWIDTH 7 0
BBX 6 7 1 0
BITMAP
60
30
00
78
FC
C0
78
ENDCHAR
STARTCHAR È
ENCODING 233
SWIDTH 630 0
DWIDTH 7 0
BBX 6 7 1 0
BITMAP
18
30
00
78
FC
C0
78
ENDCHAR
STARTCHAR Í
ENCODING 234
SWIDTH 630 0
DWIDTH 7 0
BBX 6 7 1 0
BITMAP
30
78
00
78
FC
C0
78
ENDCHAR
STARTCHAR Î
ENCODING 235
SWIDTH 630 0
DWIDTH 7 0
BBX 6 7 1 0
BITMAP
CC
00
78
CC
FC
C0
78
ENDCHAR
STARTCHAR Ï
ENCODING 236
SWIDTH 540 0
DWIDTH 6 0
BBX 5 7 1 0
BITMAP
C0
60
00
70
30
30
78
ENDCHAR
STARTCHAR Ì
ENCODING 237
SWIDTH 540 0
DWIDTH 6 0
BBX 4 7 2 0
BITMAP
30
60
00
E0
60
60
F0
ENDCHAR
STARTCHAR Ó
ENCODING 238
SWIDTH 540 0
DWIDTH 6 0
BBX 4 7 2 0
BITMAP
60
F0
00
E0
60
60
F0
ENDCHAR
STARTCHAR Ô
ENCODING 239
SWIDTH 630 0
DWIDTH 7 0
BBX 6 7 1 0
BITMAP
CC
00
00
70
30
30
78
ENDCHAR
STARTCHAR 
ENCODING 240
SWIDTH 630 0
DWIDTH 7 0
BBX 6 7 1 0
BITMAP
D8
78
CC
7C
CC
CC
78
ENDCHAR
STARTCHAR Ò
ENCODING 241
SWIDTH 630 0
DWIDTH 7 0
BBX 6 7 1 0
BITMAP
68
B0
00
F8
CC
CC
CC
ENDCHAR
STARTCHAR Ú
ENCODING 242
SWIDTH 630 0
DWIDTH 7 0
BBX 6 7 1 0
BITMAP
60
30
00
78
CC
CC
78
ENDCHAR
STARTCHAR Û
ENCODING 243
SWIDTH 630 0
DWIDTH 7 0
BBX 6 7 1 0
BITMAP
18
30
00
78
CC
CC
78
ENDCHAR
STARTCHAR Ù
ENCODING 244
SWIDTH 630 0
DWIDTH 7 0
BBX 6 7 1 0
BITMAP
30
78
00
78
CC
CC
78
ENDCHAR
STARTCHAR ı
ENCODING 245
SWIDTH 630 0
DWIDTH 7 0
BBX 6 7 1 0
BITMAP
68
B0
00
78
CC
CC
78
ENDCHAR
STARTCHAR ˆ
ENCODING 246
SWIDTH 630 0
DWIDTH 7 0
BBX 6 7 1 0
BITMAP
CC
00
78
CC
CC
CC
78
ENDCHAR
STARTCHAR ˜
ENCODING 247
SWIDTH 630 0
DWIDTH 7 0
BBX 6 7 1 0
BITMAP
30
30
00
FC
00
30
30
ENDCHAR
STARTCHAR ¯
ENCODING 248
SWIDTH 630 0
DWIDTH 7 0
BBX 6 7 1 -1
BITMAP
04
78
DC
EC
CC
78
80
ENDCHAR
STARTCHAR ˘
ENCODING 249
SWIDTH 630 0
DWIDTH 7 0
BBX 6 7 1 0
BITMAP
60
30
00
CC
CC
CC
7C
ENDCHAR
STARTCHAR ˙
ENCODING 250
SWIDTH 630 0
DWIDTH 7 0
BBX 6 7 1 0
BITMAP
18
30
00
CC
CC
CC
7C
ENDCHAR
STARTCHAR ˚
ENCODING 251
SWIDTH 630 0
DWIDTH 7 0
BBX 6 7 1 0
BITMAP
30
78
00
CC
CC
CC
7C
ENDCHAR
STARTCHAR ¸
ENCODING 252
SWIDTH 630 0
DWIDTH 7 0
BBX 6 7 1 0
BITMAP
CC
00
CC
CC
CC
CC
7C
ENDCHAR
STARTCHAR ˝
ENCODING 253
SWIDTH 630 0
DWIDTH 7 0
BBX 6 8 1 -1
BITMAP
18
30
CC
CC
CC
7C
0C
F8
ENDCHAR
STARTCHAR ˛
ENCODING 254
SWIDTH 630 0
DWIDTH 7 0
BBX 6 7 1 0
BITMAP
C0
C0
D8
EC
CC
F8
C0
ENDCHAR
STARTCHAR ˇ
ENCODING 255
SWIDTH 630 0
DWIDTH 7 0
BBX 6 8 1 -1
BITMAP
CC
00
CC
CC
CC
7C
0C
F8
ENDCHAR
ENDFONT
